<svg width="500" height="500" viewBox="0 0 500 500" fill="none" xmlns="http://www.w3.org/2000/svg">
<path d="M197.382 329.531C165.962 305.03 165.962 264.603 165.962 251.127C165.962 237.243 168.818 224.176 174.531 212.334C180.244 200.083 187.997 189.466 197.79 180.482C207.583 171.499 219.417 164.148 232.883 158.84C246.349 153.531 260.63 151.081 275.32 151.081C290.418 151.081 304.292 153.531 317.35 158.84C330.408 164.148 341.833 171.09 352.035 180.482C361.828 189.466 369.581 200.083 375.294 212.334C381.006 224.584 383.863 237.243 383.863 251.127V351.991H275.32C230.843 351.991 207.991 338.107 197.382 329.531Z" fill="#2B398F"/>
<path d="M74.5565 218.867V286.654H60.6827V218.867H74.5565Z" fill="black"/>
<path d="M89.2462 238.468C90.8784 234.793 93.7347 231.118 96.5911 228.259C99.8556 225.401 103.528 222.951 107.609 221.317C111.689 219.684 116.586 218.867 121.074 218.867C125.971 218.867 130.46 219.684 134.948 221.317C139.029 222.951 142.701 225.401 145.966 228.259C149.23 231.118 151.678 234.385 153.719 238.468C155.351 242.552 156.575 246.635 156.575 251.127V286.654H142.701V251.127C142.701 248.269 142.293 245.818 141.069 243.777C139.845 241.327 138.621 239.285 136.58 237.651C134.54 236.018 132.5 234.385 129.644 233.568C127.195 232.751 124.339 231.934 121.482 231.934C118.626 231.934 115.77 232.343 113.321 233.568C110.873 234.385 108.425 236.018 106.792 237.651C104.752 239.285 103.528 241.327 102.304 243.777C101.08 246.227 100.672 248.677 100.672 251.127V286.654H86.3898V251.127C86.3898 246.635 87.2059 242.552 89.2462 238.468Z" fill="black"/>
<path d="M207.991 218.867C212.48 218.867 216.56 219.684 220.233 220.909C223.905 222.542 227.169 224.584 230.026 227.034C232.882 229.484 235.331 232.751 236.963 236.018C238.595 239.285 239.411 243.368 239.411 247.044C239.411 251.127 238.595 254.802 236.963 258.069C235.331 261.744 232.882 264.603 230.026 267.053C227.169 270.32 223.905 272.361 219.824 273.995C216.152 275.628 212.071 276.037 207.583 276.037H188.812V298.904H176.571V247.452C176.571 243.368 177.387 239.693 178.611 236.018C182.692 225.401 190.853 222.134 194.525 220.501C198.606 219.276 203.502 218.867 207.991 218.867ZM215.336 263.378C217.784 262.561 219.824 261.336 221.457 259.703C223.089 258.069 224.721 256.436 225.537 253.986C226.353 251.944 227.169 249.494 227.169 247.044C227.169 244.593 226.761 242.552 225.537 240.51C224.721 238.468 223.089 236.426 221.457 235.201C219.824 233.568 217.784 232.343 215.336 231.526C212.888 230.709 210.439 230.301 207.991 230.301C205.543 230.301 202.278 230.301 200.238 231.118C197.79 231.934 196.157 232.751 194.525 234.385C192.893 236.018 191.261 238.468 190.445 240.51C189.628 242.552 189.22 245.002 189.22 247.452V264.603H207.991C210.439 264.603 212.888 264.194 215.336 263.378Z" fill="white"/>
<path d="M302.252 218.867V230.301H261.447C259.815 230.301 258.182 230.709 256.958 231.934C255.734 233.16 255.326 234.385 255.326 236.018C255.326 237.651 255.734 238.876 256.958 240.102C258.182 241.327 259.815 241.735 261.447 241.735H286.746C289.195 241.735 291.643 242.143 294.091 242.96C296.54 243.777 298.172 245.002 300.212 246.635C301.844 248.269 303.476 249.902 304.293 251.944C305.109 253.986 305.925 256.436 305.925 258.477C305.925 260.928 305.517 262.969 304.293 265.011C303.476 267.053 301.844 269.095 300.212 270.32C298.58 271.953 296.54 273.178 294.091 273.995C291.643 274.812 289.195 275.22 286.746 275.22H245.533V263.786H286.746C288.787 263.786 290.011 263.378 291.235 262.153C292.459 260.928 292.867 259.702 292.867 258.069C292.867 256.436 292.459 255.211 291.235 253.986C290.011 252.76 288.378 252.352 286.746 252.352H261.447C258.999 252.352 256.55 251.944 254.102 251.127C251.654 250.31 250.021 249.085 248.389 247.452C246.757 245.818 245.533 244.185 244.309 242.143C243.493 240.102 242.676 237.651 242.676 235.61C242.676 233.16 243.084 231.118 244.309 229.076C245.125 227.034 246.757 225.401 248.389 223.767C250.021 222.134 252.062 220.909 254.102 220.092C256.55 219.276 258.999 218.867 261.447 218.867H302.252Z" fill="white"/>
<path d="M359.377 218.867V247.452C359.377 249.902 358.969 251.944 357.745 254.394C356.929 256.436 355.297 258.477 353.664 260.111C352.032 261.744 349.992 262.969 347.952 263.786C345.911 264.603 343.463 265.011 340.607 265.011C338.158 265.011 335.71 264.603 333.262 263.786C330.813 262.969 329.181 261.744 327.141 260.111C325.509 258.477 324.284 256.844 323.06 254.394C322.244 252.352 321.428 249.902 321.428 247.452V218.867H309.186V247.452C309.186 251.535 310.003 255.211 311.635 258.477C313.267 262.153 315.307 265.011 318.164 267.461C321.02 269.911 324.284 271.953 327.957 273.587C331.629 275.22 335.71 275.628 339.791 275.628C343.463 275.628 346.727 275.22 349.584 273.995C352.848 273.178 355.705 271.545 358.153 269.503C358.153 271.953 357.745 273.995 356.521 276.037C355.705 278.078 354.072 280.12 352.44 281.754C350.808 283.387 348.768 284.612 346.727 285.429C344.687 286.245 342.239 286.654 339.382 286.654H308.37V298.904H333.262H339.382C343.871 298.904 347.544 298.088 351.216 296.863C354.889 295.229 358.153 293.187 361.009 290.737C363.866 288.287 365.906 285.02 367.538 281.754C369.17 278.487 369.987 274.812 369.987 270.728V218.867H359.377Z" fill="white"/>
<path d="M435.274 273.996H429.97C427.113 273.996 424.257 273.587 421.809 272.362C419.36 271.546 416.912 269.912 414.872 268.279C412.832 266.645 411.607 264.604 410.383 262.154C409.159 259.703 408.751 257.253 408.751 254.395V247.861V231.935H430.378V218.868H408.751V196H394.877V218.868H375.699V231.935H394.877V254.395C394.877 258.887 395.693 262.97 397.733 267.054C399.366 271.137 402.222 274.404 405.487 277.263C408.751 280.121 412.423 282.571 416.912 284.205C420.993 285.838 425.889 286.655 430.378 286.655H435.683V273.996H435.274Z" fill="#2B398F"/>
</svg>
