<svg width="500" height="500" viewBox="0 0 500 500" fill="none" xmlns="http://www.w3.org/2000/svg">
<path d="M75.8738 217.786V285.573H62V217.786H75.8738Z" fill="white"/>
<path d="M90.5654 237.387C92.1976 233.712 95.054 230.037 97.9103 227.178C101.175 224.32 104.847 221.87 108.928 220.236C113.008 218.603 117.905 217.786 122.394 217.786C127.29 217.786 131.779 218.603 136.267 220.236C140.348 221.87 144.02 224.32 147.285 227.178C150.549 230.037 152.998 233.304 155.038 237.387C156.67 241.471 157.894 245.554 157.894 250.046V285.573H144.02V250.046C144.02 247.188 143.612 244.738 142.388 242.696C141.164 240.246 139.94 238.204 137.9 236.571C135.859 234.937 133.819 233.304 130.963 232.487C128.514 231.67 125.658 230.854 122.802 230.854C119.945 230.854 117.089 231.262 114.641 232.487C112.192 233.304 109.744 234.937 108.112 236.571C106.071 238.204 104.847 240.246 103.623 242.696C102.399 245.146 101.991 247.596 101.991 250.046V285.573H87.709V250.046C87.709 245.554 88.5251 241.471 90.5654 237.387Z" fill="white"/>
<path d="M276.64 150C291.737 150 305.611 152.45 318.669 157.759C331.726 163.067 343.152 170.009 353.353 179.401C363.147 188.385 370.9 199.002 376.613 211.253C382.326 223.504 385.182 236.163 385.182 250.047V350.91H276.64C232.162 350.91 209.31 337.026 198.701 328.45C167.281 303.949 167.281 263.523 167.281 250.047C167.281 236.163 170.138 223.095 175.85 211.253C181.563 199.002 189.316 188.385 199.109 179.401C208.903 170.418 220.736 163.067 234.202 157.759C247.668 152.45 261.95 150 276.64 150ZM209.308 217.786C204.82 217.786 199.923 218.195 195.843 219.42C192.17 221.053 184.009 224.32 179.929 234.938C178.704 238.613 177.889 242.288 177.889 246.371V297.823H190.13V274.956H208.9C213.389 274.956 217.47 274.547 221.142 272.914C225.223 271.281 228.487 269.238 231.344 265.972C234.2 263.522 236.648 260.663 238.28 256.988C239.912 253.722 240.728 250.046 240.728 245.963C240.728 242.288 239.912 238.204 238.28 234.938C236.648 231.671 234.2 228.403 231.344 225.953C228.487 223.503 225.223 221.461 221.551 219.828C217.878 218.603 213.797 217.786 209.308 217.786ZM310.504 246.371C310.504 250.455 311.32 254.13 312.952 257.396C314.584 261.072 316.625 263.93 319.481 266.38C322.338 268.83 325.602 270.872 329.274 272.506C332.947 274.139 337.028 274.548 341.108 274.548C344.781 274.548 348.045 274.139 350.901 272.914C354.166 272.097 357.022 270.464 359.471 268.422C359.471 270.872 359.062 272.914 357.838 274.956C357.022 276.998 355.39 279.04 353.758 280.673C352.125 282.306 350.085 283.531 348.045 284.348C346.005 285.164 343.556 285.573 340.7 285.573H309.687V297.823H340.7C345.188 297.823 348.861 297.007 352.533 295.782C356.206 294.149 359.471 292.106 362.327 289.656C365.183 287.206 367.223 283.939 368.855 280.673C370.488 277.406 371.304 273.731 371.304 269.647V217.786H360.694V246.371C360.694 248.821 360.287 250.863 359.062 253.313C358.246 255.355 356.613 257.397 354.981 259.03C353.349 260.663 351.309 261.888 349.269 262.705C347.229 263.522 344.78 263.931 341.924 263.931C339.475 263.931 337.027 263.522 334.579 262.705C332.131 261.888 330.498 260.664 328.458 259.03C326.826 257.397 325.602 255.763 324.378 253.313C323.562 251.272 322.745 248.821 322.745 246.371V217.786H310.504V246.371ZM262.766 217.786C260.317 217.786 257.868 218.195 255.42 219.012C253.38 219.828 251.34 221.053 249.708 222.687C248.076 224.32 246.443 225.953 245.627 227.995C244.403 230.037 243.995 232.078 243.995 234.528C243.995 236.57 244.811 239.021 245.627 241.062C246.851 243.104 248.076 244.738 249.708 246.371C251.34 248.004 252.972 249.229 255.42 250.046C257.868 250.863 260.317 251.271 262.766 251.271H288.064C289.697 251.271 291.329 251.679 292.554 252.904C293.778 254.129 294.185 255.355 294.185 256.988C294.185 258.621 293.777 259.846 292.554 261.071C291.329 262.296 290.105 262.705 288.064 262.705H246.851V274.139H288.064C290.513 274.139 292.962 273.731 295.41 272.914C297.858 272.097 299.898 270.872 301.53 269.239C303.162 268.014 304.795 265.972 305.611 263.931C306.835 261.889 307.243 259.847 307.243 257.396C307.243 255.355 306.427 252.905 305.611 250.863C304.795 248.822 303.162 247.188 301.53 245.555C299.49 243.921 297.858 242.696 295.41 241.879C292.962 241.062 290.513 240.654 288.064 240.654H262.766C261.133 240.654 259.5 240.246 258.276 239.021C257.052 237.796 256.644 236.571 256.644 234.938C256.644 233.304 257.052 232.079 258.276 230.854C259.5 229.628 261.133 229.22 262.766 229.22H303.57V217.786H262.766ZM209.308 229.22C211.757 229.22 214.205 229.629 216.653 230.445C219.101 231.262 221.142 232.487 222.774 234.12C224.406 235.345 226.039 237.387 226.855 239.429C228.08 241.47 228.487 243.513 228.487 245.963C228.487 248.413 227.671 250.863 226.855 252.904C226.039 255.354 224.407 256.989 222.774 258.622C221.142 260.255 219.101 261.48 216.653 262.297C214.205 263.114 211.757 263.521 209.308 263.521H190.538V246.371C190.538 243.921 190.946 241.47 191.763 239.429C192.579 237.387 194.211 234.937 195.843 233.304C197.475 231.67 199.107 230.854 201.556 230.037C203.596 229.22 206.86 229.22 209.308 229.22Z" fill="white"/>
<path d="M436.593 272.915H431.288C428.431 272.915 425.575 272.506 423.127 271.281C420.678 270.465 418.23 268.831 416.19 267.198C414.15 265.564 412.925 263.523 411.701 261.073C410.477 258.622 410.069 256.172 410.069 253.314V246.78V230.854H431.696V217.787H410.069V194.919H396.195V217.787H377.017V230.854H396.195V253.314C396.195 257.806 397.011 261.889 399.052 265.973C400.684 270.056 403.54 273.323 406.805 276.182C410.069 279.04 413.742 281.49 418.23 283.124C422.311 284.757 427.207 285.574 431.696 285.574H437.001V272.915H436.593Z" fill="white"/>
</svg>
